<svg height="512" viewBox="0 0 512 512" width="512" xmlns="http://www.w3.org/2000/svg"><path d="m464 392h-416a40.045 40.045 0 0 1 -40-40v-224a40.045 40.045 0 0 1 40-40h64v16h-64a24.027 24.027 0 0 0 -24 24v224a24.027 24.027 0 0 0 24 24h416a24.027 24.027 0 0 0 24-24v-224a24.027 24.027 0 0 0 -24-24h-64v-16h64a40.045 40.045 0 0 1 40 40v224a40.045 40.045 0 0 1 -40 40z"/><path d="m488 344h-464a8 8 0 0 1 0-16h464a8 8 0 0 1 0 16z"/><path d="m96 368h-40a8 8 0 0 1 0-16h40a8 8 0 0 1 0 16z"/><path d="m128 368h-8a8 8 0 0 1 0-16h8a8 8 0 0 1 0 16z"/><path d="m312 440h-113a8 8 0 0 1 -7.863-9.474l9-48a8 8 0 0 1 7.863-6.526h96a8 8 0 0 1 7.892 6.685l8 48a8 8 0 0 1 -7.892 9.315zm-103.36-16h93.917l-5.334-32h-82.583z"/><path d="m352 464h-192a8 8 0 0 1 -8-8v-24a8 8 0 0 1 8-8h192a8 8 0 0 1 8 8v24a8 8 0 0 1 -8 8zm-184-16h176v-8h-176z"/><path d="m400 272h-288a8 8 0 0 1 -8-8v-208a8 8 0 0 1 8-8h288a8 8 0 0 1 8 8v208a8 8 0 0 1 -8 8zm-280-16h272v-192h-272z"/><path d="m256 192a7.974 7.974 0 0 1 -5.314-2.021l-144-128 10.628-11.958 138.686 123.279 138.686-123.279 10.628 11.958-144 128a7.974 7.974 0 0 1 -5.314 2.021z"/><path d="m99.833 171.722h120.334v16h-120.334z" transform="matrix(.798 -.603 .603 .798 -76.006 132.806)"/><path d="m343.5 119.155h16v121.133h-16z" transform="matrix(.599 -.801 .801 .599 -2.955 353.544)"/><path d="m344 248h-64a8 8 0 0 1 0-16h64a8 8 0 0 1 0 16z"/><path d="m376 248h-8a8 8 0 0 1 0-16h8a8 8 0 0 1 0 16z"/></svg>